<svg xmlns="http://www.w3.org/2000/svg" viewBox="0 0 195.57 373.6"><defs><style>.cls-1{fill:#fff;}</style></defs><g id="Layer_2" data-name="Layer 2"><g id="Layer_1-2" data-name="Layer 1"><path class="cls-1" d="M180.17,373.6H15.4V15.4H180.17ZM25.4,363.6H170.17V25.4H25.4Z"/><path class="cls-1" d="M156.58,206a5.4,5.4,0,1,1-10.79,0v-3.87a5.4,5.4,0,0,1,10.79,0Z"/><path class="cls-1" d="M151.19,184.72a4,4,0,0,0-3.75,2.66H132.5a1.33,1.33,0,0,0,0,2.66h14.94a4,4,0,1,0,3.75-5.32Z"/><circle class="cls-1" cx="97.78" cy="110.17" r="2.43"/><polygon class="cls-1" points="185.57 0 10 0 0 0 0 373.6 10 373.6 10 10 185.57 10 185.57 373.6 195.57 373.6 195.57 0 185.57 0"/></g></g></svg>