<svg xmlns="http://www.w3.org/2000/svg" viewBox="0 0 164.77 379.14"><defs><style>.cls-1{fill:#fff;}</style></defs><g id="Layer_2" data-name="Layer 2"><g id="Layer_1-2" data-name="Layer 1"><path class="cls-1" d="M141.19,259.5a5.4,5.4,0,0,1-10.79,0v-3.87a5.4,5.4,0,1,1,10.79,0Z"/><path class="cls-1" d="M135.79,238.25a4,4,0,0,0-3.74,2.66h-15a1.33,1.33,0,0,0,0,2.66h15a4,4,0,1,0,3.74-5.32Z"/><circle class="cls-1" cx="82.39" cy="163.7" r="2.43"/><path class="cls-1" d="M154.77,0H0V68.93H0V379.14H164.77V68.93h0V0Zm0,369.14H10V78.93H154.77ZM10,68.93V10H154.77V68.93Z"/></g></g></svg>