<svg xmlns="http://www.w3.org/2000/svg" viewBox="0 0 101.39 214.42"><defs><style>.cls-1{fill:#cc2411;}.cls-2{fill:#01305a;}.cls-3{fill:#053866;}.cls-4{fill:#072a51;}.cls-5{fill:#78201b;}.cls-6{fill:#013868;}.cls-7{fill:#2e1f38;}.cls-8{fill:#591c1f;}.cls-9{fill:#e1e1e1;}.cls-10{fill:#064175;}.cls-11{fill:#777776;}.cls-12{fill:#0b355c;}.cls-13{fill:#747474;}.cls-14{fill:#112e48;}.cls-15{fill:#7e2419;}.cls-16{fill:#102c44;}.cls-17{fill:#737474;}.cls-18{fill:#767373;}.cls-19{fill:#112a45;}.cls-20{fill:#828382;}.cls-21{fill:#777;}.cls-22{fill:#929292;}.cls-23{fill:#1a2744;}</style></defs><g id="Layer_2" data-name="Layer 2"><g id="Layer_1-2" data-name="Layer 1"><path class="cls-1" d="M22.85,183.85c-.72,1.49-2,2.84-1.23,4.72,1.3,4.33,3.1,8.28,7.77,10,1.54.56,2.56,1.52,2.27,3.31s-1.13,3.34-2.94,3.54c-3.61.39-5.68,2.3-7.7,5.26a5.89,5.89,0,0,1-8.25,1.85,39.88,39.88,0,0,0-7.93-3.87l-4.84,0V181.75c6.54-2.33,13.3-1.44,20-1.26C21.87,180.54,23.68,181.23,22.85,183.85Z"/><path class="cls-2" d="M0,108.13v-2c2.56-2.55,5.37-2.13,5.69,1.21.45,4.53,3.19,5.2,6.5,5.87a73.14,73.14,0,0,0-2.67,11.9c-.43,3.64.15,6.52,4.06,7.91a7.84,7.84,0,0,1,4.34,3.87,12.07,12.07,0,0,1,1.37,6.2,11.35,11.35,0,0,0,2.34,7.33c2.72,3.84,2.17,6.5-1.79,9.08a51.21,51.21,0,0,1-9.65,5c-5.24,2-9.16-.72-9.68-6.31-.25-2.75.58-5.56-.51-8.25V132c1.08-2.35.25-4.84.52-7.25.87-2.44,4.88-4.77.31-7.44C0,114.31,2.56,111,0,108.13Z"/><path class="cls-3" d="M0,149.92c1.89,2.14.76,4.72,1,7.1.56,6.13,5.08,8.58,10.43,5.57,2.85-1.59,5.74-3.11,8.56-4.76,1.66-1,3.44-2.94,2-4.33-4.8-4.71-3.53-11-5.06-16.52,2.71-.35,3.66,1.8,3.77,3.57.34,5.91,3.88,9.86,7.64,13.78,1.41,2.89.79,4.89-2.47,5.87-1.94.59-3,2.33-4.45,3.59-1.16,2-4.39,2.15-4.69,5-.21,1.71-2.5,2.73-1.6,4.81,1.22,2.09,3.63,2.22,5.47,3.29.45.26.4.26.39.17,0-.3.08-.62.08-.94,2.53.26,5.5-2.07,7.48,1.33,1,1.75,1.75,3.53-1.19,3.78-2.05.18-2.78,2.17-4.52,2.61-.52-2-2-2.09-3.72-2-5.25.32-10.54-.32-15.8.45A10.74,10.74,0,0,1,0,181.75Z"/><path class="cls-4" d="M12,113.1c-6.24,2-6.42,2-6.92-4.41-.32-4.11-2.64-3.13-5-2.55v-2c1.21-4.41,1.35-9,2.53-13.44.38-1.42.35-2.95,1.6-4,3.83-1.55,7.83-1,11.72-.61s4.61,3.35,4.41,6.56a58,58,0,0,1-3,14.48C16.12,109.66,15.06,112.29,12,113.1Z"/><path class="cls-5" d="M4.51,87.3C3.56,93.07,2.85,98.89,0,104.15V77.29c1.48-3.84.86-7.85,1-11.8a15.11,15.11,0,0,1,.16-2.43c.67-4.31.36-8.83,2.88-12.72l.23-1.89c.36-1,.91-1.53,2-.76,2,3,1.47,6.37,1.2,9.56-.82,9.46-1.63,18.92-2.23,28.4A17,17,0,0,1,4.51,87.3Z"/><path class="cls-6" d="M1,124.05c-.44,2.64,1,5.51-1,8V108.13c4.91,2.47,2.08,5.81,1,9A5.17,5.17,0,0,1,1,124.05Z"/><path class="cls-7" d="M2,63.36l-.05,2c-.88.45-.05,2.6-2,2V53.41l2.91-2.16A98.2,98.2,0,0,1,2,63.36Z"/><path class="cls-8" d="M0,67.34c.66-.67,1.33-1.33,2-2-.18,4.06.85,8.32-2,11.94Z"/><path class="cls-9" d="M4.33,86.59c-1.17-8.39,1-16.64,1-25,0-4.49,1.76-9.06-.43-13.48-2-3.29.31-4.92,2.72-6A7.37,7.37,0,0,0,12,37.94l-.11-.27c6.67.6,11.07-4.26,16.43-6.82,2.5-.73,4.88,0,7.26.63,2.81,1.24,6,0,8.88,1.37,1.11.52,1-1.13.78-2.05-5.06-3.63-8.38-8.24-8.5-14.73,0-1-.63-2.28.31-2.76,3.9-2,5.49-7.27,10.79-7.25,1.85,0,3.27-1.41,4.75-2.5,3.89-2.84,8-3.7,12.57-1.38,1.85.95,3.27,2.55,2.4,4.33-1.83,3.73.4,6.21,1.95,9l4.22,2.54c.32.94,1.19,1,2,1.23,4.58,1.42,4.83,2,3.1,6.61l-.09.28c2.2,3.25,6.08,4.1,9.23,5.48C93.06,33.9,94.37,39.78,99.28,42c1.11.49.48,1.74-.66,2.16a4.6,4.6,0,0,1-4.27-.67c-4.08-2.77-9-2.83-13.38-2.76-3.44.06-4.85,5.37-8.12,7.52-1.68,1.11,0,3.09.84,4.4A25.12,25.12,0,0,0,79,59.13c.94.77,2.66,1.12,2,2.94a3.1,3.1,0,0,1-3.13,2.07c-3.53-.31-6.73,2.71-10.54.57-1.94-1.1-3.48,1.39-5.21,2.22-2.69,1.29-.59,2.72-.36,4.35.54,3.72-2.59,6.07-4.74,8.51A29.71,29.71,0,0,1,47.05,87a6.76,6.76,0,0,1-1.64.5C31.67,88.72,18,86.89,4.33,86.59Z"/><path class="cls-10" d="M4.33,86.59l42.23.15c-1.34,2.83-4,1.47-6.08,1.87-3.8.74-4.65,2.12-2.45,5.21s1.32,4.06-2,4.36c-2.68.24-5.45.45-6,3.95,1.06.42,1.26,1.1.63,2a13.66,13.66,0,0,1-2.42,3.38c-2.3,3.78-3.16,8.25-5.94,11.83-1.44,1.86-.2,3.72,1.13,5.34,1.1,1.35,1.9,3,.36,4.4-1.32,1.22-2.8.46-4.07-.41a55.31,55.31,0,0,1-5.32-3.62c-4-3.48-4.33-6.08-.3-9.67,2.55-2.28.17-5.17,1.83-7.3.94-4.61,1.91-9.22,2.81-13.83,1.1-5.68-.06-7.06-5.87-7.06-2.79,0-5.58,0-8.36.07A.67.67,0,0,1,4.33,86.59Z"/><path class="cls-11" d="M47.77,86.27c4.87-3.33,9.43-7,12.62-12,.65-1,1.33-1.66.56-3-.61-1.11-3.24-2.53-1.36-3.42,2.68-1.28,4.74-5.19,8.11-3.65,4,1.85,7.2-1.41,11-1,1.61.17,2.24-1.68.47-3.12a22.22,22.22,0,0,1-3.61-3.37c-5-6.39-5-6.42.62-12.29,3.46-3.63,5.13-4.2,9.72-4a17.74,17.74,0,0,1,8.45,2.32c1.53.92,3.19,1.67,5,.31C93.93,39.1,90.76,32.75,84.1,30.43c-2.14-.74-5-1.09-5.41-4.25,4,2.27,8.3,4,12.12,6.66,2.1,1.48,4,2.8,5,5.2a3.63,3.63,0,0,0,2.81,2.49c1.52.32,3.23,1.1,2.71,2.81-.61,2-2.69,2.34-4.59,1.92-3.34-.73-6.07-3-9.79-3.18-2.14-.08-5.7-1.46-6.47-.65-2.35,2.49-4.69,5-7.13,7.45-1.29,1.29.49,2.34,1.14,3.36,1.48,2.36,2.84,4.75,5.25,6.48,3.05,2.18,2.64,5.27-1,6-3.25.68-6.5,2.11-10.09,1.18-4.46-1.15-6.88,1.28-5.9,5.72.7,3.2-2.07,5.19-3.44,6.64-2.89,3.07-5.39,7.22-10.21,8A.86.86,0,0,1,47.77,86.27Z"/><path class="cls-12" d="M47.77,86.27l1.32.07c-2.45,3.33-7.2,5-6.76,10.46.16,2-2,2.47-4.14,2.35-3.07-.18-6.29-.31-8.16,3-.14-2.21,1.44-4.14,4.1-4.82a16.53,16.53,0,0,1,2.45-.17A1.66,1.66,0,0,0,38.39,96c-1.39-1.57-4.64-2.57-3.3-5.84.95-2.32,2.82-3,5.17-2.87a19.5,19.5,0,0,0,3,0c1.12-.1,2.23-.34,3.34-.51Z"/><path class="cls-13" d="M69.49,15.52c-2.38-2.06-4.12-4-2.93-7.77C67.88,3.64,62.64-.16,57.62,2,50.7,5,43.48,7.75,38,13.32c-2.08,2.12.8,11.84,4.23,14.07,1.66,1.08,3.68,1.66,3.83,4.08a.64.64,0,0,1-1,.05c-5.75-3.29-8.56-8.35-9.1-14.85-.09-1.12-1-2.74,0-3.25,4.13-2.16,5.69-7.89,11.28-8,2.32,0,3.8-1.84,5.54-3.05A11.21,11.21,0,0,1,65,1.27c3.26,1.54,5,3.66,3.12,7C66.34,11.33,70,12.93,69.49,15.52Z"/><path class="cls-14" d="M32.89,116.29c7.19.61,10.92,2.95,11.86,11.64.59,5.47-.77,12,3.17,17.39,1.36,1.84-1.68,2.63-3,3.72l-.49-.5c-1.06-5.9-.88-12.07-3.89-17.54a2.37,2.37,0,0,1-.38-.92c-.28-5.58-2.75-9.8-7.72-12.5A1.6,1.6,0,0,1,32.89,116.29Z"/><path class="cls-15" d="M4.84,208.67c3.05-.39,5.27,1.63,7.73,2.81,3.78,1.82,6.87,1.31,8.62-2.58,1.22-2.72,3.36-3.27,5.8-3.83,1.73-.4,3.66-.74,3.87-3.13s-1.69-2.58-3.08-3.3c-4.09-2.13-6.31-5.36-6.16-10.06,2.57,4.34,4.69,9.06,10.48,10.2,1.29.26,1.29,1.8.83,3-.84,2.14-1.52,4.8-4.31,4.81-3.46,0-5.08,1.38-6.71,4.48A6.35,6.35,0,0,1,14,214C10.63,212.74,7.32,211.4,4.84,208.67Z"/><path class="cls-16" d="M20.86,163.85a9.65,9.65,0,0,1,5-4.42c2.38-.86,2.81-2.36,2.07-4.52,4.87-7.13,11.4-9.3,16.83-6.06l.2.19c-.27,2.21-2.06,2.15-3.37,1.74-3.48-1.1-5.28-.06-7.83,2.79-3.44,3.84-6.67,8.44-12,10.3C21.47,164.25,21.16,164.24,20.86,163.85Z"/><path class="cls-17" d="M27.87,31.43c-4.77,3.53-9.22,7.85-16,6.24,6.29-.37,10.79-4.64,16-7.3a.66.66,0,0,1,.23.72C28,31.32,28,31.43,27.87,31.43Z"/><path class="cls-18" d="M12,37.94A3.5,3.5,0,0,1,9.1,42.25c-3.26.81-4.46,2.74-4.19,5.89l-.2.35-.43,0c-2.95-3.51-.12-5.69,2.35-6.65C8.92,40.9,10.2,39.21,12,37.94Z"/><path class="cls-19" d="M32.89,116.29c0,.29,0,.57,0,.86-3.57-.28-5.71-2.67-5.92-6.72a7.79,7.79,0,0,1,1-4.27l2.72-2C28.89,108.67,29.07,112.81,32.89,116.29Z"/><path class="cls-20" d="M78.78,25.9c2.19-5.12-3.56-5.11-5.07-7.84,1.72.31,3.84.1,5.08,1C81.37,21.08,81.7,23.64,78.78,25.9Z"/><path class="cls-21" d="M45.12,31.52l.94-.05c1.4,2.24.6,4-1.71,2.6C41.55,32.39,38.73,33,36,32.39c-.16-1,.12-1.46,1.19-1.1C39.82,31,42.44,32.32,45.12,31.52Z"/><path class="cls-22" d="M37.15,31.29,36,32.39c-2.62-1-5.38-.78-8.09-1,0-.35,0-.7,0-1.06C31.2,28.5,34.12,30.46,37.15,31.29Z"/><path class="cls-8" d="M2,63.36c-.14-4.07-.22-8.13.87-12.11.16-.58.31-1.17,1.14-.91C3.43,54.69,3.5,59.14,2,63.36Z"/><path class="cls-23" d="M21.08,176.13l1.9,1.18c-3.05-.38-6.58.3-7.84-3.7Z"/><path class="cls-2" d="M20.86,163.85l.92,0-5,4.93C15.55,165,19.22,165.28,20.86,163.85Z"/><path class="cls-6" d="M27.94,106.16c.28,4.27-.23,8.89,4.93,11,.65.47,1.26,1.23,2,1.36,4.09.75,6.06,2.9,5.84,7.24a10.44,10.44,0,0,0,2.88,7.61c2.23,2.53-1,6.08,1.2,8.83,1.74,2.19,1.22,4.44,0,6.66-6.92-1.61-11.75,2.57-16.83,6.06-4.46-3.28-8.26-6.89-8.11-13.11A5.19,5.19,0,0,0,16.94,137c-1.15-.88-2.2-2.35-3.46-2.56-6-1-6.26-5.27-5.33-9.6.86-4,0-8.67,3.81-11.72l4-5a14.3,14.3,0,0,0,.75,3.33c1.14,2.26,1.5,3.78-1.62,4.84-3.69,1.26-3.58,3.68-1.25,6.5,2,2.37,5,3.19,7.13,5.24.8.76,1.68,1.28,2.49.24a1.69,1.69,0,0,0-.59-2.56c-4.79-2.73-3.27-6.27-.57-8.94C25.37,113.7,24.18,108.65,27.94,106.16Z"/><path class="cls-4" d="M1,124.05v-7c1.67,0,3.65.06,3.72,2.17C4.8,121.6,3.85,123.7,1,124.05Z"/></g></g></svg>